<?xml version="1.0" standalone="no"?><!DOCTYPE svg PUBLIC "-//W3C//DTD SVG 1.1//EN" "http://www.w3.org/Graphics/SVG/1.1/DTD/svg11.dtd"><svg t="1655818638672" class="icon" viewBox="0 0 1024 1024" version="1.1" xmlns="http://www.w3.org/2000/svg" p-id="5039" xmlns:xlink="http://www.w3.org/1999/xlink" width="200" height="200"><defs><style type="text/css"></style></defs><path d="M597.333333 853.333333a85.333333 85.333333 0 1 1-170.666666 0h170.666666zM512 85.333333a64 64 0 0 1 64 64v25.173334c109.226667 20.096 192 115.797333 192 230.826666v217.002667a42.666667 42.666667 0 0 0 12.501333 30.165333l60.330667 60.330667a42.666667 42.666667 0 0 1 12.501333 30.165333V768a42.666667 42.666667 0 0 1-42.666666 42.666667H213.333333a42.666667 42.666667 0 0 1-42.666666-42.666667v-25.002667a42.666667 42.666667 0 0 1 12.501333-30.165333l60.330667-60.330667A42.666667 42.666667 0 0 0 256 622.336V405.333333c0-115.029333 82.773333-210.773333 192-230.826666V149.333333A64 64 0 0 1 512 85.333333z m21.333333 170.666667h-42.666666a149.333333 149.333333 0 0 0-149.12 141.141333L341.333333 405.333333v217.002667a128 128 0 0 1-31.701333 84.309333l-5.802667 6.186667-12.501333 12.501333h441.301333l-12.458666-12.501333a128 128 0 0 1-37.205334-82.048L682.666667 622.336V405.333333a149.333333 149.333333 0 0 0-141.141334-149.12L533.333333 256z" fill="#000000" fill-opacity=".87" p-id="5040"></path></svg>