<?xml version="1.0" standalone="no"?><!DOCTYPE svg PUBLIC "-//W3C//DTD SVG 1.1//EN" "http://www.w3.org/Graphics/SVG/1.1/DTD/svg11.dtd"><svg t="1655728084531" class="icon" viewBox="0 0 1066 1024" version="1.1" xmlns="http://www.w3.org/2000/svg" p-id="20535" xmlns:xlink="http://www.w3.org/1999/xlink" width="208.203125" height="200"><defs><style type="text/css"></style></defs><path d="M512 128a128 128 0 1 1 0 256 128 128 0 0 1 0-256z m0 85.333333a42.666667 42.666667 0 1 0 0 85.333334 42.666667 42.666667 0 0 0 0-85.333334zM512 640a128 128 0 1 1 0 256 128 128 0 0 1 0-256z m0 85.333333a42.666667 42.666667 0 1 0 0 85.333334 42.666667 42.666667 0 0 0 0-85.333334zM768 384a128 128 0 1 1 0 256 128 128 0 0 1 0-256z m0 85.333333a42.666667 42.666667 0 1 0 0 85.333334 42.666667 42.666667 0 0 0 0-85.333334zM256 384a128 128 0 1 1 0 256 128 128 0 0 1 0-256z m0 85.333333a42.666667 42.666667 0 1 0 0 85.333334 42.666667 42.666667 0 0 0 0-85.333334z" fill="#000000" p-id="20536"></path><path d="M512 0c282.752 0 512 229.248 512 512s-229.248 512-512 512S0 794.752 0 512 229.248 0 512 0z m0 85.333333C276.352 85.333333 85.333333 276.352 85.333333 512s191.018667 426.666667 426.666667 426.666667 426.666667-191.018667 426.666667-426.666667S747.648 85.333333 512 85.333333z" fill="#000000" p-id="20537"></path><path d="M512 426.666667a85.333333 85.333333 0 1 1 0 170.666666 85.333333 85.333333 0 0 1 0-170.666666zM512 1024h512a42.666667 42.666667 0 0 0 0-85.333333H512a42.666667 42.666667 0 0 0 0 85.333333z" fill="#000000" p-id="20538"></path></svg>