<?xml version="1.0" standalone="no"?><!DOCTYPE svg PUBLIC "-//W3C//DTD SVG 1.1//EN" "http://www.w3.org/Graphics/SVG/1.1/DTD/svg11.dtd"><svg t="1655818559044" class="icon" viewBox="0 0 1024 1024" version="1.1" xmlns="http://www.w3.org/2000/svg" p-id="4221" xmlns:xlink="http://www.w3.org/1999/xlink" width="200" height="200"><defs><style type="text/css"></style></defs><path d="M917.333333 298.666667h-3.84a42.666667 42.666667 0 0 0-29.866666 12.373333L768 426.666667V298.666667a85.333333 85.333333 0 0 0-85.333333-85.333334H170.666667a85.333333 85.333333 0 0 0-85.333334 85.333334v426.666666a85.333333 85.333333 0 0 0 85.333334 85.333334h512a85.333333 85.333333 0 0 0 85.333333-85.333334v-128l115.626667 115.626667a42.666667 42.666667 0 0 0 29.866666 12.373333h3.84a21.333333 21.333333 0 0 0 21.333334-21.333333v-384a21.333333 21.333333 0 0 0-21.333334-21.333333zM597.333333 533.333333a21.333333 21.333333 0 0 1-21.333333 21.333334H469.333333v106.666666a21.333333 21.333333 0 0 1-21.333333 21.333334h-42.666667a21.333333 21.333333 0 0 1-21.333333-21.333334V554.666667H277.333333a21.333333 21.333333 0 0 1-21.333333-21.333334v-42.666666a21.333333 21.333333 0 0 1 21.333333-21.333334H384V362.666667a21.333333 21.333333 0 0 1 21.333333-21.333334h42.666667a21.333333 21.333333 0 0 1 21.333333 21.333334V469.333333h106.666667a21.333333 21.333333 0 0 1 21.333333 21.333334z" p-id="4222"></path></svg>