<?xml version="1.0" standalone="no"?><!DOCTYPE svg PUBLIC "-//W3C//DTD SVG 1.1//EN" "http://www.w3.org/Graphics/SVG/1.1/DTD/svg11.dtd"><svg t="1657282168294" class="icon" viewBox="0 0 1024 1024" version="1.1" xmlns="http://www.w3.org/2000/svg" p-id="14159" xmlns:xlink="http://www.w3.org/1999/xlink" width="200" height="200"><defs><style type="text/css">html, * { user-select: text !important; }
</style></defs><path d="M576 512v213.333333h-128V512h128m85.333333-85.333333H362.666667v384h298.666666V426.666667zM341.333333 938.666667h341.333334a149.333333 149.333333 0 0 0 149.333333-149.333334h-85.333333a64 64 0 0 1-64 64H341.333333a64 64 0 0 1-64-64H192a149.333333 149.333333 0 0 0 149.333333 149.333334z m170.666667-721.706667l30.08 30.293333A42.666667 42.666667 0 0 1 554.666667 277.333333a42.666667 42.666667 0 0 1-85.333334 0 42.666667 42.666667 0 0 1 12.586667-30.08L512 216.96m0-120.746667l-90.453333 90.666667A126.72 126.72 0 0 0 384 277.333333a128 128 0 0 0 256 0 126.72 126.72 0 0 0-37.546667-90.453333L512 96.213333z" p-id="14160"></path></svg>